<?xml version="1.0" encoding="UTF-8"?>
<svg viewBox="0 0 744.09448819 1052.3622047" xmlns="http://www.w3.org/2000/svg">
 <g transform="matrix(3.0013 0 0 3.0013 642.13 -258.26)">
  <path d="m-70.911 265.64s2.7216-0.7035 4.8156 3.0492 7.6384 11.99 4.4843 15.225c-4.2654 4.3739-17.885-12.41-9.3-18.274z" fill="#26231f"/>
  <path d="m-54.16 265.41s2.8598 1.3229 2.3036 4.2233c-0.8041 4.1921-8.2513 11.581-13.61 7.5058-3.3774-2.5691 3.2133-9.9271 7.957-11.494 1.1969-0.3955 2.6325-0.8023 3.3496-0.2353z" fill="#26231f"/>
  <path d="m-48.731 230.36s-5.219 33.174-5.219 35.988-6.0717 8.6784-7.5378 7.0367 0.8376-3.5183 2.5124-6.3332c1.6752-2.8143-1.0468-32.368-0.4188-35.652s10.454-3.8545 10.663-1.0396z" fill="#26231f"/>
  <path d="m-82.666 228.14s8.6154 36.567 9.8719 39.616 4.1877 10.085 5.863 7.7406c1.6748-2.3462-1.6758-10.321-1.6758-10.321s-2.0931-31.43-2.9312-34.949-10.081-6.5433-11.128-2.0872z" fill="#26231f"/>
  <path d="m-78.197 140.41s-11.093-29.664-21.471-29.864l-1.79 2.2048s3.2217-0.2002 5.5474 2.806l-0.537 1.2028s-5.1887-5.2115-7.3361-4.6109-3.5782 3.6083-3.0416 4.811 8.7673 4.2099 7.8728 4.6099-6.9782-4.6104-8.2307-2.4055 3.9361 5.0112 3.9361 5.0112l-5.3678-1.0025-1.0733 1.8043 5.5465 3.6078s-6.9777 0-6.799 0.8019 0.3579 2.8055 2.8628 3.4072 1.2525 2.405 1.2525 2.405-2.6841-0.6017-2.3262 2.004 4.652 2.0046 11.273 3.0062 13.778 6.0138 16.282 4.4102 5.7256-2.2049 3.3994-4.2095z" fill="#26231f"/>
  <path d="m-80.425 137.44s-8.946-17.678-11.359-20.83-7.2372-5.1799-7.2372-5.1799l-1.2061 0.9012s4.6233 0.9002 5.6286 3.1525-1.6082 2.7021-1.6082 2.7021-6.031-5.4043-6.6343-5.2921-2.5129 3.8288-2.5129 3.8288 7.6392 1.8019 7.9411 3.9405-1.0053 2.3645-1.0053 2.3645-7.2372-3.7165-7.5386-3.3779-0.3019 0.9012-0.3019 0.9012 5.5284 3.7156 5.6291 4.9539-7.2372-1.6887-7.2372-1.6887l-0.7035 0.9007s6.2319 2.4772 6.4331 4.0536-1.1055 1.2384-1.1055 1.2384h-6.3329l0.7035 1.0134s5.5289 2.1395 5.4282 3.7155-4.0209 2.1396-4.0209 2.1396 0.3019 1.576 0.5027 1.2378 20.607 2.1401 23.12 5.9684c0 0 3.4175-4.2791 3.6184-4.8417s-0.2008-1.8019-0.2008-1.8019z" fill="#855c12"/>
  <path d="m-43.305 139.21s22.041-29.354 29.523-27.259c0.7162 0.1997 1.7895 4.2089 1.7895 5.8121s-1.61 1.2028-1.61 1.2028l4.1149-0.2002 1.6104 5.211s-7.336 3.4066-5.1886 3.2074 5.3678-1.2028 5.3678-1.2028 1.61 3.6082-0.1792 3.808-2.6837 1.2027-1.4312 1.2027 0.5367 3.2069 0.5367 3.2069-22.008 3.2063-28.092 8.6186c0 0-2.5054 3.4076-3.9366 2.2048s-5.9053-2.2043-2.5049-5.8125z" fill="#26231f"/>
  <path d="m-45.453 142.01s9.6627-22.248 18.967-26.658l1.1438 1.8148s-13.312 12.817-14.206 18.228c0 0-4.8316 7.8172-5.9049 6.615z" fill="#26231f"/>
  <path d="m-39.011 142.82s19.861-8.4179 27.376-6.2135l0.3579 0.6011s-21.472 4.2089-28.986 8.6186l1.2525-3.0062z" fill="#26231f"/>
  <path d="m-89.469 204.55s-4.6533 18.642-2.8637 20.446 30.239 19.241 58.51 2.6053c0 0-2.3257-20.844-5.7253-24.052s-46.521-7.0149-49.921 1.0016z" fill="#26231f"/>
  <path d="m-38.4136,147.729c0,0 5.0796-4.0873 6.4909.2991 0,0 1.8888,8.3566-4.0244,9.3586-.1545.0262-.1068-1.1306-.1068-1.1306s-1.2317-6.4968-2.3597-8.5271z" fill="#26231f"/>
  <path d="m-37.714 149.16s4.1347-3.811 5.122-0.3001c0 0 1.6532 4.0433-3.4957 6.2823-0.1452 0.0638 0 0 0 0s0.0432-3.9336-1.6263-5.9822z" fill="#f09b75"/>
  <path d="m-82.707 141.99s-4.2504-5.9337-6.4971-2.0086c0 0-3.3924 8.3571 2.1735 10.81 0.1447 0.0633 0.3283-1.0757 0.3283-1.0757s2.4913-6.0272 3.9953-7.7253z" fill="#26231f"/>
  <path d="m-83.676 143.21s-3.2733-4.7453-4.9331-1.5686c0 0-2.4149 3.5292 2.1594 6.9956 0.1284 0.0979 0 0 0 0s0.7388-3.8456 2.7737-5.427z" fill="#f09b75"/>
  <path d="m-36.094 157.87c-1.0301 10.24-10.654 17.672-22.487 18.141-1.6537 0.0668-3.3387 1.6512-5.0606 1.4336-1.9665-0.2482-3.8757-2.3289-5.6786-2.9133-11.074-3.5821-18.651-13.048-17.64-23.084 1.1739-11.671 13.513-19.694 27.559-17.921s24.482 12.672 23.307 24.344z" fill="#26231f"/>
  <path d="m-37.948 157.28c-0.97 9.6335-9.9032 16.64-20.874 17.102-1.5335 0.0648-3.0619 1.0332-4.6586 0.8316-1.823-0.23-3.6254-1.6601-5.2967-2.2059-10.263-3.3491-17.274-12.24-16.324-21.681 1.1046-10.98 12.556-18.547 25.576-16.902s22.681 11.876 21.577 22.855z" fill="#f4b891"/>
  <path d="m-49.068,148.646c-.846.9338-2.8161,1.7362-3.9132,1.3278l3.9132-1.3278z" fill="#26231f"/>
  <path d="m-52.9817,149.9733c.124-.2828.8976-.302 1.9237-.7094 1.0283-.3693 1.7772-.8251 1.9899-.6189 .2229.1987-.4453,1.2542-1.6744,1.6917-1.2251.5077-2.3884-.0564-2.2393-.3634z" fill="#26231f"/>
  <path d="m-50.569 147.13c-0.5128 1.2191-1.9462 2.2399-3.1237 2.4179l3.1237-2.4179z" fill="#26231f"/>
  <path d="m-53.692,149.5451c-.0154-.3431.7074-.702 1.5261-1.2853 .7908-.6219 1.3023-1.2492 1.598-1.1326 .252.0717-.0207,1.2829-1.0353,2.0709-1.0287.7376-2.0919.6357-2.0888.347z" fill="#26231f"/>
  <path d="m-51.655 146.55c-0.0931 1.2215-1.1514 2.3877-2.2022 2.6132l2.2022-2.6132z" fill="#26231f"/>
  <path d="m-53.8574,149.1665c-.0274-.35.5318-.7173 1.0967-1.3249 .5225-.6456.7847-1.2774 1.1051-1.2883 .2542-.047.3976,1.1262-.38,2.0733-.8134.8834-1.8257.8261-1.8218.5398z" fill="#26231f"/>
  <path d="m-51.954,150.3667c-.2847.9304-1.256,1.401-2.1695,1.0505s-1.4255-1.3882-1.1413-2.318c.286-.9309 1.2555-1.398 2.1695-1.0485s1.425,1.3867 1.1412,2.3161z" fill="#26231f"/>
  <path d="m-70.181 144.72c0.6399 1.1217 2.4017 2.3952 3.5522 2.2721l-3.5522-2.2721z" fill="#26231f"/>
  <path d="m-66.628,146.9953c.0909.2951-1.1382.5576-2.2556-.2086-1.0949-.7598-1.538-1.9468-1.297-2.0634 .2749-.1562.91.4578 1.8182,1.096 .9224.609 1.6576.83 1.7344,1.1761z" fill="#26231f"/>
  <path d="m-68.417 143.62c0.2577 1.3165 1.4537 2.667 2.5658 3.1352l-2.5658-3.1352z" fill="#26231f"/>
  <path d="m-65.851,146.7525c-.0556.2828-1.1108.1157-1.9674-.8592-.8332-1.0213-.8584-2.2696-.5989-2.2765 .3116-.0395.6863.6995 1.3337,1.5018 .6823.7717 1.3156,1.3036 1.2326,1.6338z" fill="#26231f"/>
  <path d="m-67.242 143.33c-0.1518 1.2151 0.6483 2.6156 1.6272 3.0971l-1.6272-3.0971z" fill="#26231f"/>
  <path d="m-65.6147,146.4262c-.0525.2798-1.0512.0831-1.6682-.9813-.5697-1.1172-.1968-2.2256.0415-2.1168 .3094.0905.4404.7722.8213,1.5325 .4303.7331.9025,1.2314.8054,1.5656z" fill="#26231f"/>
  <path d="m-67.7082,147.121c.0927.9788.9457,1.6783 1.9061,1.5646s1.6647-.9986 1.5729-1.9759-.9457-1.6754-1.9065-1.5622-1.6651.9966-1.5724,1.9735z" fill="#26231f"/>
  <path d="m-39.293 153.36c0.838 3.018-2.3425 6.8087-7.1044 8.4678s-9.3013 0.5601-10.14-2.4575 2.7759-6.5107 7.5373-8.1717 8.8705-0.8562 9.7073 2.1613z" fill="#f4b891"/>
  <path d="m-39.354,153.3649c.8319,2.9963-2.3223,6.7578-7.0452,8.4036-4.723,1.6447-9.2258.5536-10.059-2.4417-.831-2.9948 2.7508-6.4632 7.4738-8.1109s8.7995-.8463 9.6305,2.149z" fill="#f4b791"/>
  <path d="m-39.4158,153.3675c.8262,2.9745-2.3014,6.7069-6.9861,8.3393s-9.1503.5472-9.9769-2.4258 2.7256-6.4152 7.4093-8.0496 8.7293-.8369 9.5537,2.1361z" fill="#f4b791"/>
  <path d="m-39.4783,153.3712c.8196,2.9523-2.2812,6.6565-6.927,8.275-4.6449,1.618-9.0749.5408-9.8957-2.41s2.7004-6.3673 7.3458-7.9883c4.6449-1.619 8.6582-.827 9.4769,2.1233z" fill="#f4b690"/>
  <path d="m-39.54 153.37c0.8143 2.93-2.2604 6.6051-6.8674 8.2103-4.6061 1.6047-8.9998 0.5349-9.8145-2.3942s2.6757-6.3198 7.2822-7.927 8.5872-0.8182 9.3996 2.1109z" fill="#f4b590"/>
  <path d="m-39.6019,153.3768c.8076,2.9078-2.2401,6.5541-6.8082,8.1454s-8.9244.5285-9.7329-2.3783 2.6506-6.2719 7.2178-7.8652 8.517-.8083 9.3233,2.098z" fill="#f4b490"/>
  <path d="m-39.6639,153.3811c.8014,2.8855-2.2198,6.5027-6.7491,8.0807s-8.8493.5225-9.6517-2.3625 2.6258-6.2239 7.1542-7.8039 8.4464-.7994 9.2465,2.0857z" fill="#f3b490"/>
  <path d="m-39.7257,153.3836c.7958,2.8633-2.1995,6.4518-6.6895,8.017-4.4896,1.5641-8.7743.5151-9.5705-2.3472-.7948-2.8618 2.6007-6.176 7.0907-7.7431s8.3753-.789 9.1693,2.0733z" fill="#f3b38f"/>
  <path d="m-39.7875,153.3862c.7895,2.8416-2.1788,6.4014-6.6304,7.9527s-8.6989.5092-9.4893-2.3314 2.576-6.128 7.0271-7.6813 8.3043-.7801 9.0925,2.06z" fill="#f3b28e"/>
  <path d="m-39.85,153.3899c.7833,2.8193-2.1588,6.3505-6.5712,7.8884s-8.6234.5022-9.4076-2.3161 2.5504-6.0801 6.9627-7.62 8.2342-.7702 9.0161,2.0476z" fill="#f2b18f"/>
  <path d="m-39.9117,153.3937c.7776,2.7971-2.1378,6.2991-6.5117,7.8237s-8.5484.4958-9.3264-2.2998 2.5252-6.0326 6.8992-7.5592c4.3726-1.5246 8.1631-.7608 8.939,2.0352z" fill="#f2b18d"/>
  <path d="m-39.974 153.4c0.7709 2.7748-2.1175 6.2477-6.4526 7.7589-4.3346 1.5107-8.4729 0.4894-9.2452-2.2844s2.5014-5.9847 6.8356-7.4974 8.0924-0.7514 8.8622 2.0229z" fill="#f3b08e"/>
  <path d="m-40.036,153.3993c.7653,2.7531-2.0968,6.1972-6.393,7.6946s-8.3979.483-9.164-2.2691c-.7639-2.7506 2.4758-5.9362 6.7716-7.4356 4.295-1.4979 8.0219-.742 8.7854,2.0101z" fill="#f3af8e"/>
  <path d="m-40.0974,153.403c.7591,2.7308-2.0764,6.1463-6.3339,7.6304s-8.3229.4766-9.0828-2.2528 2.4511-5.8887 6.7081-7.3748c4.2561-1.4845 7.9513-.7321 8.7086,1.9972z" fill="#f3ae8e"/>
  <path d="m-40.16 153.41c0.7528 2.7081-2.0562 6.0949-6.2747 7.5651s-8.2474 0.4706-9.0012-2.237 2.4255-5.8408 6.6441-7.313 7.8803-0.7228 8.6318 1.9848z" fill="#f3ae8d"/>
  <path d="m-40.2217,153.4082c.7471,2.6868-2.0353,6.0445-6.2151,7.5013s-8.1724.4642-8.92-2.2211c-.7458-2.6843 2.4008-5.7928 6.5801-7.2517s7.8095-.7134 8.555,1.9715z" fill="#f2ac8d"/>
  <path d="m-40.283,153.4119c.7405,2.6641-2.0151,5.9931-6.156,7.4366s-8.0969.4583-8.8383-2.2053 2.3752-5.7454 6.5161-7.1909c4.14-1.4435 7.739-.703 8.4782,1.9596z" fill="#f2ac8c"/>
  <path d="m-40.3448,153.415c.7348,2.6418-1.9948,5.9421-6.0968,7.3718s-8.0219.4513-8.7571-2.1895c-.7335-2.6403 2.3509-5.6974 6.4521-7.1296s7.6684-.6941 8.4019,1.9473z" fill="#f1ab8c"/>
  <path d="m-40.4073,153.4187c.7286,2.6201-1.974,5.8907-6.0377,7.3076s-7.9464.4454-8.6755-2.1742 2.3258-5.649 6.389-7.0678 7.5969-.6842 8.3242,1.9344z" fill="#f1ab8c"/>
  <path d="m-40.47 153.42c0.7225 2.5978-1.9537 5.8398-5.9786 7.2433s-7.8709 0.4385-8.5943-2.1584 2.3006-5.6015 6.325-7.0065c4.0231-1.4035 7.5267-0.6753 8.2478 1.9216z" fill="#f2a98a"/>
  <path d="m-40.5312,153.4243c.7162,2.5756-1.9335,5.7889-5.919,7.1785s-7.7964.4326-8.5131-2.1425c-.7158-2.5736 2.2754-5.5536 6.2615-6.9452 3.9838-1.3901 7.4557-.6654 8.1706,1.9092z" fill="#f2a88b"/>
  <path d="m-40.5925,153.4281c.7097,2.5538-1.914,5.738-5.8608,7.1147s-7.7204.4251-8.4314-2.1272 2.2503-5.5061 6.197-6.8839 7.3855-.656 8.0952,1.8963z" fill="#f2a88a"/>
  <path d="m-40.6548,153.4306c.7044,2.5316-1.8928,5.6871-5.8007,7.0505s-7.645.4192-8.3502-2.1114c-.703-2.5296 2.2256-5.4582 6.1335-6.8231s7.3149-.6461 8.0174,1.884z" fill="#f2a78a"/>
  <path d="m-40.7173,153.4337c.6977,2.5094-1.8725,5.6357-5.7416,6.9857s-7.57.4128-8.269-2.0961 2.2009-5.4097 6.0699-6.7608 7.2439-.6372 7.9407,1.8711z" fill="#f1a689"/>
  <path d="m-40.7786,153.4374c.6916,2.4871-1.8522,5.5847-5.682,6.9215s-7.4954.4063-8.1878-2.0802 2.1757-5.3623 6.0055-6.7 7.1732-.6273 7.8643,1.8588z" fill="#f0a589"/>
  <path d="m-40.8404,153.44c.6858,2.4653-1.8314,5.5343-5.6228,6.8567s-7.4199.4004-8.1062-2.0639c-.6849-2.4634 2.1506-5.3143 5.9415-6.6387s7.103-.6175 7.7875,1.8459z" fill="#f0a48a"/>
  <path d="m-40.9029,153.4442c.6796,2.4426-1.8111,5.4829-5.5637,6.7919s-7.3445.394-8.025-2.0486 2.1258-5.2664 5.8784-6.5769 7.0316-.608 7.7103,1.8336z" fill="#f0a488"/>
  <path d="m-40.9647,153.4468c.674,2.4209-1.7904,5.432-5.5041,6.7277s-7.269.3876-7.9433-2.0328 2.1003-5.2184 5.814-6.5156 6.9614-.5987 7.6335,1.8207z" fill="#f0a388"/>
  <path d="m-41.0272,153.4494c.6678,2.3986-1.77,5.3811-5.445,6.6634-3.6744,1.2824-7.194.3811-7.8621-2.017s2.0755-5.1705 5.7504-6.4543 6.8903-.5893 7.5567,1.8079z" fill="#f0a288"/>
  <path d="m-41.0889,153.4531c.6619,2.3764-1.7494,5.3301-5.3855,6.5986s-7.1189.3742-7.7809-2.0011c-.6607-2.3749 2.0508-5.123 5.6868-6.3935 3.6347-1.2685 6.8193-.5794 7.4796,1.796z" fill="#f0a187"/>
  <path d="m-41.1507,153.4556c.6558,2.3546-1.7292,5.2787-5.3263,6.5344s-7.0435.3683-7.6997-1.9858c-.654-2.3521 2.0257-5.0746 5.6228-6.3312s6.7491-.5705 7.4032,1.7826z" fill="#f0a187"/>
  <path d="m-41.2129,153.4594c.6493,2.3324-1.7087,5.2283-5.2671,6.4701s-6.9684.3614-7.6185-1.97 2.001-5.0266 5.5593-6.2704 6.6781-.5606 7.3263,1.7703z" fill="#f09f87"/>
  <path d="m-41.2746,153.4624c.6429,2.3101-1.6886,5.1769-5.2081,6.4054s-6.893.3554-7.5369-1.9542 1.9758-4.9791 5.4949-6.2091 6.6079-.5512 7.25,1.7579z" fill="#ef9e86"/>
  <path d="m-41.3364,153.465c.6373,2.2879-1.6677,5.126-5.1485,6.3411s-6.818.3485-7.4557-1.9384 1.9506-4.9317 5.4318-6.1478 6.5363-.5418 7.1724,1.7451z" fill="#ef9c86"/>
  <path d="m-41.3977,153.4692c.6311,2.2656-1.6479,5.0746-5.0893,6.2763s-6.7425.3426-7.3745-1.923c-.6298-2.2632 1.9259-4.8832 5.3678-6.086s6.4662-.5319 7.096,1.7327z" fill="#ef9c86"/>
  <path d="m-41.4607,153.4718c.6253,2.2434-1.6267,5.0236-5.0297,6.2121s-6.6675.3357-7.2928-1.9072c-.624-2.2414 1.9003-4.8353 5.3033-6.0252s6.3956-.522 7.0192,1.7204z" fill="#ef9b85"/>
  <path d="m-41.522,153.475c.6188,2.2216-1.6069,4.9732-4.9706,6.1478s-6.5924.3297-7.2116-1.8914 1.8756-4.7873 5.2398-5.9634c3.3633-1.1746 6.3251-.5131 6.9424,1.707z" fill="#ef9b84"/>
  <path d="m-41.5845,153.4781c.613,2.1994-1.5861,4.9218-4.911,6.083-3.3258,1.1612-6.5174.3233-7.1309-1.8756s1.8509-4.7399 5.1762-5.9026c3.3245-1.1607 6.2539-.5033 6.8656,1.6951z" fill="#ef9b84"/>
  <path d="m-41.6463,153.4807c.6068,2.1776-1.5658,4.8709-4.8519,6.0188s-6.442.3169-7.0492-1.8598 1.8257-4.6919 5.1123-5.8413 6.1838-.4939 6.7888,1.6823z" fill="#ef9983"/>
  <path d="m-41.7077,153.4844c.6007,2.1554-1.5451,4.82-4.7927,5.9545s-6.3665.3105-6.9676-1.8439 1.8006-4.644 5.0483-5.78c3.2468-1.1341 6.1128-.484 6.712,1.6694z" fill="#ef9883"/>
  <path d="m-41.7702,153.4875c.5945,2.1331-1.5252,4.769-4.734,5.8897s-6.2906.304-6.8859-1.8286c-.5936-2.1307 1.7759-4.5955 4.9847-5.7182s6.0417-.4746 6.6353,1.6571z" fill="#ee9783"/>
  <path d="m-41.832,153.49c.5887,2.1109-1.504,4.7181-4.674,5.8255s-6.216.2976-6.8047-1.8128 1.7503-4.5485 4.9207-5.6569 5.9711-.4652 6.558,1.6442z" fill="#ee9783"/>
  <path d="m-41.8945,153.4938c.5825,2.0886-1.4842,4.6672-4.6153,5.7612s-6.1405.2912-6.7235-1.7975 1.726-4.5001 4.8572-5.5951c3.1303-1.094 5.9005-.4558 6.4817,1.6314z" fill="#ee9682"/>
  <path d="m-41.9563,153.4968c.5759,2.0664-1.4634,4.6158-4.5562,5.6964s-6.0655.2848-6.6419-1.7812c-.575-2.0649 1.7009-4.4527 4.7932-5.5343s5.8294-.4464 6.4048,1.619z" fill="#ed9482"/>
  <path d="m-42.018 153.5c0.5702 2.0447-1.4431 4.5649-4.4966 5.6322s-5.99 0.2783-6.5607-1.7658 1.6757-4.4042 4.7296-5.473 5.7588-0.4365 6.3276 1.6066z" fill="#ed9482"/>
  <path d="m-42.079 153.5c0.564 2.0224-1.4224 4.5145-4.4375 5.5679-3.0142 1.054-5.9146 0.2719-6.479-1.75s1.6505-4.3563 4.6652-5.4112 5.6882-0.4276 6.2513 1.5933z" fill="#ee9482"/>
  <path d="m-42.1419,153.5062c.5578,2.0002-1.4025,4.463-4.3783,5.5027s-5.8396.266-6.3978-1.7337 1.6254-4.3088 4.6021-5.3504c2.9745-1.0401 5.6171-.4177 6.1741,1.5815z" fill="#ee9282"/>
  <path d="m-42.2032,153.5094c.5516,1.9784-1.3818,4.4121-4.3192,5.4384s-5.7645.2595-6.3166-1.7184 1.6007-4.2603 4.5381-5.2886 5.5465-.4078 6.0977,1.5686z" fill="#ed9182"/>
  <path d="m-42.265,153.512c.546,1.9562-1.361,4.3612-4.2596,5.3741s-5.6891.2526-6.2354-1.7026c-.5446-1.9537 1.5764-4.2129 4.4741-5.2273s5.4763-.3985 6.0209,1.5557z" fill="#ed9181"/>
  <path d="m-42.3275,153.5162c.5393,1.9339-1.3412,4.3098-4.2005,5.3094s-5.614.2467-6.1542-1.6867 1.5512-4.165 4.4105-5.166 5.4053-.3891 5.9441,1.5434z" fill="#ed9081"/>
  <path d="m-42.3893,153.5193c.534,1.9112-1.3204,4.2584-4.1409,5.2446s-5.5386.2398-6.0726-1.6709 1.5256-4.1175 4.3466-5.1052 5.3347-.3792 5.8669,1.5315z" fill="#ed8e81"/>
  <path d="m-42.4518,153.5214c.5278,1.8899-1.3001,4.2085-4.0818,5.1809s-5.4635.2338-5.9914-1.6551 1.5009-4.0695 4.2826-5.0434 5.2641-.3703 5.7906,1.5177z" fill="#ed8d80"/>
  <path d="m-42.5136,153.5256c.5221,1.8672-1.2794,4.157-4.0222,5.1161s-5.3881.2269-5.9097-1.6398c-.5208-1.8647 1.4753-4.0211 4.2186-4.9821s5.1935-.3604 5.7133,1.5058z" fill="#ed8d80"/>
  <path d="m-42.5749,153.5282c.5159,1.8454-1.2591,4.1061-3.9631,5.0518s-5.3131.221-5.8285-1.624c-.5146-1.843 1.4502-3.9736 4.155-4.9208s5.1224-.3505 5.6365,1.493z" fill="#ed8c7f"/>
  <path d="m-42.6367,153.5307c.5093,1.8232-1.2388,4.0552-3.9039,4.9875s-5.238.2141-5.7473-1.6081 1.4259-3.9257 4.0915-4.8595c2.6638-.9324 5.0514-.3416 5.5598,1.4801z" fill="#ed8a7f"/>
  <path d="m-42.6992,153.535c.5031,1.8009-1.2185,4.0038-3.8448,4.9228s-5.1626.2081-5.6661-1.5923 1.4007-3.8782 4.0275-4.7982 4.9812-.3317 5.4834,1.4677z" fill="#ed8a7e"/>
  <path d="m-42.7606,153.538c.4974,1.7787-1.1978,3.9529-3.7852,4.858s-5.0876.2017-5.5849-1.577 1.376-3.8298 3.9639-4.7364 4.9101-.3228 5.4062,1.4554z" fill="#eb897d"/>
  <path d="m-42.8231,153.5406c.4912,1.7564-1.1775,3.9019-3.7261,4.7938s-5.0121.1953-5.5033-1.5607c-.4903-1.7545 1.3504-3.7823 3.9-4.6756s4.8391-.3129 5.3294,1.4425z" fill="#eb877c"/>
  <path d="m-42.8853,153.5443c.4854,1.7347-1.1567,3.8505-3.6665,4.7295s-4.9366.1888-5.4221-1.5454c-.4837-1.7322 1.3257-3.7344 3.836-4.6138s4.7689-.3035 5.2526,1.4297z" fill="#eb877c"/>
  <path d="m-42.9466,153.5464c.4788,1.7125-1.1364,3.8001-3.6078,4.6652s-4.8612.1824-5.3404-1.5295 1.3006-3.6864 3.7724-4.5525 4.6983-.2941 5.1758,1.4168z" fill="#eb867b"/>
  <path d="m-43.0084,153.5506c.4731,1.6902-1.1161,3.7487-3.5487,4.6005s-4.7861.176-5.2592-1.5142 1.2758-3.6385 3.7089-4.4907 4.6272-.2847 5.099,1.4045z" fill="#ea847b"/>
  <path d="m-43.0709,153.5532c.4669,1.6679-1.0954,3.6978-3.4886,4.5362s-4.7111.1696-5.178-1.4984 1.2507-3.5905 3.6444-4.4299 4.5571-.2749 5.0222,1.3921z" fill="#ea837b"/>
  <path d="m-43.1323,153.5574c.4607,1.6457-1.0751,3.6464-3.4295,4.4714s-4.6361.1631-5.0968-1.4826c-.4594-1.6432 1.2255-3.5425 3.5809-4.3686 2.3536-.8246 4.486-.265 4.9454,1.3797z" fill="#ea837b"/>
  <path d="m-43.1948,153.56c.4546,1.624-1.0548,3.5959-3.3708,4.4072s-4.5602.1567-5.0147-1.4672 1.2004-3.4946 3.5169-4.3068c2.3143-.8112 4.415-.2556 4.8686,1.3669z" fill="#ea8179"/>
  <path d="m-43.257,153.5625c.4488,1.6022-1.034,3.545-3.3112,4.3429s-4.4851.1503-4.9335-1.4509 1.1752-3.4471 3.4529-4.246 4.3448-.2462 4.7919,1.354z" fill="#ea8078"/>
  <path d="m-43.3179,153.5658c.4426,1.58-1.0137,3.4941-3.2517,4.2786-2.2384.785-4.4105.1439-4.8528-1.4356s1.1505-3.3992 3.3893-4.1847c2.2371-.7835 4.2737-.2363 4.7151,1.3417z" fill="#ea8078"/>
  <path d="m-43.3804,153.5688c.436,1.5577-.9934,3.4427-3.193,4.2139s-4.3346.1374-4.7711-1.4198c-.4351-1.5547 1.1254-3.3512 3.3258-4.1229s4.2031-.2269 4.6383,1.3288z" fill="#ea7e77"/>
  <path d="m-43.4426,153.5726c.4307,1.5355-.9727,3.3918-3.1334,4.1496s-4.2596.131-4.6899-1.404 1.1011-3.3033 3.2622-4.0621 4.1321-.2175 4.561,1.3165z" fill="#ea7d78"/>
  <path d="m-43.504,153.5756c.4241,1.5127-.9524,3.3408-3.0742,4.0849-2.1214.745-4.1842.1241-4.6083-1.3882s1.0755-3.2558 3.1978-4.0008c2.1206-.7435 4.0615-.2076 4.4847,1.3041z" fill="#e97c77"/>
  <path d="m-43.5665,153.5782c.4179,1.491-.9321,3.2899-3.0151,4.0206s-4.1087.1181-4.5271-1.3728 1.0508-3.2074 3.1338-3.939 3.9913-.1982 4.4084,1.2913z" fill="#e97c77"/>
  <path d="m-43.6274,153.5819c.4118,1.4692-.9118,3.239-2.956,3.9558s-4.0337.1122-4.4459-1.3565 1.0256-3.1599 3.0707-3.8777c2.0424-.7168 3.9198-.1888 4.3311,1.2784z" fill="#e97a76"/>
  <path d="m-43.6896,153.585c.406,1.4465-.891,3.1876-2.8964,3.8911-2.0049.705-3.9587.1058-4.3642-1.3407-.4047-1.444 1.0005-3.112 3.0063-3.8164 2.0036-.7035 3.8492-.1795 4.2543,1.266z" fill="#e97a76"/>
  <path d="m-43.7521,153.5876c.3998,1.4247-.8707,3.1367-2.8372,3.8268s-3.8836.0994-4.283-1.3249 .9753-3.064 2.9427-3.7551c1.9648-.6901 3.7786-.1701 4.1775,1.2532z" fill="#e87975"/>
  <path d="m-43.8139,153.5918c.3941,1.402-.85,3.0858-2.7777,3.762s-3.8082.0929-4.2018-1.3096 .9506-3.016 2.8787-3.6933 3.7084-.1607 4.1007,1.2408z" fill="#e87975"/>
  <path d="m-43.8764,153.5944c.3875,1.3802-.8297,3.0348-2.7185,3.6978s-3.7331.0865-4.1206-1.2937 .9259-2.9681 2.8152-3.632 3.6374-.1513 4.024,1.228z" fill="#e87875"/>
  <path d="m-43.9382,153.5969c.3817,1.3585-.8094,2.9839-2.6589,3.634s-3.6577.0796-4.039-1.2784 .9003-2.9202 2.7512-3.5712 3.5667-.1409 3.9467,1.2156z" fill="#e87775"/>
  <path d="m-44 153.6c0.3756 1.3362-0.7891 2.933-2.5998 3.5697s-3.5826 0.0732-3.9577-1.2626c-0.3742-1.3333 0.8756-2.8727 2.6872-3.5099s3.4961-0.1315 3.8704 1.2028z" fill="#e87673"/>
  <path d="m-44.0621,153.6037c.3694,1.314-.7688,2.8821-2.5407,3.505s-3.5072.0667-3.8761-1.2473 .8504-2.8247 2.6228-3.4481 3.426-.1221 3.794,1.1904z" fill="#e87673"/>
  <path d="m-44.123,153.607c.3628,1.2917-.7489,2.8307-2.4824,3.4407s-3.4317.0603-3.7949-1.2314 .8257-2.7768 2.5601-3.3868 3.3545-.1127 3.7172,1.1776z" fill="#e87573"/>
  <path d="m-44.1852,153.61c.357,1.2695-.7277,2.7797-2.422,3.3754s-3.3567.0544-3.7137-1.2151 .8006-2.7288 2.4957-3.3255c1.6933-.5957 3.2839-.1033 3.64,1.1652z" fill="#e87473"/>
  <path d="m-44.247,153.6137c.3513,1.2473-.7074,2.7288-2.3628,3.3112s-3.2817.0479-3.6325-1.1993c-.3495-1.2448.7754-2.6809 2.4321-3.2647 1.6545-.5819 3.2133-.0929 3.5632,1.1528z" fill="#e87472"/>
  <path d="m-44.3095,153.6163c.3451,1.2255-.6867,2.6779-2.3032,3.2469s-3.2062.0415-3.5513-1.184c-.3438-1.2221.7507-2.6325 2.3686-3.2029s3.1422-.084 3.486,1.14z" fill="#e87472"/>
  <path d="m-44.3713,153.6194c.3389,1.2033-.6664,2.6265-2.2446,3.1822s-3.1307.0351-3.4692-1.1682 .7255-2.585 2.3041-3.1416 3.0716-.0742 3.4097,1.1276z" fill="#e87272"/>
  <path d="m-44.4338,153.6231c.3328,1.181-.6461,2.5761-2.1854,3.1179s-3.0557.0287-3.388-1.1524 .7004-2.5375 2.2406-3.0803 3.001-.0652 3.3328,1.1148z" fill="#e87171"/>
  <path d="m-44.4956,153.6252c.327,1.1593-.6254,2.5252-2.1258,3.0536s-2.9802.0223-3.3068-1.1365 .6757-2.4896 2.1766-3.019 2.9304-.0554 3.2561,1.1019z" fill="#e86f70"/>
  <path d="m-44.5569,153.6294c.3208,1.1365-.605,2.4737-2.0667,2.9889s-2.9052.0158-3.2256-1.1207c-.3191-1.1341.6514-2.4416 2.113-2.9577 1.4603-.5146 2.8593-.046 3.1793,1.0896z" fill="#e86f70"/>
  <path d="m-44.6194,153.632c.3142,1.1148-.5847,2.4228-2.0076,2.9246s-2.8298.009-3.144-1.1049 .6253-2.3942 2.049-2.8964 2.7887-.0366 3.1025,1.0767z" fill="#e86e70"/>
  <path d="m-44.6812,153.6345c.3089,1.0925-.5636,2.3719-1.948,2.8603s-2.7543.003-3.0628-1.0896 .6006-2.3457 1.9851-2.8346 2.7185-.0272 3.0257,1.0639z" fill="#e76d6f"/>
  <path d="m-44.7425,153.6388c.3023,1.0703-.5437,2.321-1.8889,2.7956-1.3451.4766-2.6793-.003-2.9811-1.0737s.5755-2.2978 1.9211-2.7733c1.3438-.4746 2.6475-.0178 2.9489,1.0515z" fill="#e76c6f"/>
  <path d="m-44.805,153.6413c.2961,1.0485-.5234,2.2701-1.8293,2.7318s-2.6047-.0104-2.9004-1.0589 .5503-2.2498 1.8575-2.7115c1.305-.4612 2.5769-.008 2.8721,1.0386z" fill="#e76c6f"/>
  <path d="m-44.8668,153.6439c.2904,1.0268-.5027,2.2192-1.7701,2.667s-2.5292-.0163-2.8187-1.0421c-.2891-1.0238.5256-2.2024 1.794-2.6512s2.5058.002 2.7949,1.0263z" fill="#e76a6f"/>
  <path d="m-44.9286,153.6481c.2842,1.004-.4824,2.1677-1.711,2.6023-1.2286.436-2.4537-.0227-2.7375-1.0268s.5009-2.1544 1.73-2.5894c1.2273-.434 2.4356.0114 2.7185,1.0139z" fill="#e7696d"/>
  <path d="m-44.9907,153.6507c.278.9823-.4621,2.1168-1.6519,2.538s-2.3787-.0292-2.6563-1.011 .4757-2.1065 1.6664-2.5281 2.3646.0208 2.6417,1.0011z" fill="#e6676d"/>
  <path d="m-45.0525,153.6538c.2718.9595-.4418,2.0659-1.5927,2.4733s-2.3033-.0356-2.5747-.9956 .4506-2.058 1.6024-2.4663 2.2935.0307 2.565.9887z" fill="#e7666d"/>
  <path d="m-45.115,153.6575c.2657.9378-.421,2.015-1.5332,2.409-1.1121.396-2.2282-.042-2.4935-.9798-.2648-.9343.4259-2.0105 1.5384-2.405s2.2234.0395 2.4882.9759z" fill="#e7666d"/>
  <path d="m-45.1768,153.6601c.2595.9155-.4007,1.9641-1.474,2.3447s-2.1528-.0484-2.4122-.964c-.2582-.9126.4007-1.9626 1.4749-2.3442s2.1523.0499 2.4114.9635z" fill="#e6656c"/>
  <path d="m-82.942 146.26c-1.4162 2.7338 0.9316 7.2225 5.2442 10.028s8.9552 2.8653 10.374 0.1329-1.4118-7.0406-5.7235-9.8461-8.4778-3.0462-9.8944-0.3144z" fill="#f4b891"/>
  <path d="m-82.8833,146.2806c-1.4061,2.7135.9219,7.1672 5.1996,9.9494s8.8829,2.8405 10.2912.1285-1.3973-6.9882-5.6737-9.7704-8.4107-3.02-9.8172-.3075z" fill="#f4b791"/>
  <path d="m-82.8233,146.2989c-1.3959,2.6938.9118,7.1128 5.1542,9.8718s8.8114,2.8158 10.209.1236-1.3822-6.9349-5.6237-9.6943-8.3436-2.9928-9.7395-.3011z" fill="#f4b791"/>
  <path d="m-82.7636,146.3171c-1.3853,2.6735.9021,7.0584 5.1092,9.7947s8.7395,2.7901 10.1265.1182-1.3667-6.8815-5.5734-9.6192-8.277-2.9656-9.6623-.2936z" fill="#f4b690"/>
  <path d="m-82.7036,146.336c-1.3752,2.6537.8923,7.003 5.0646,9.7165s8.6666,2.7655 10.0436.1137c1.3747-2.6527-1.3523-6.829-5.5232-9.5435s-8.2099-2.9385-9.585-.2867z" fill="#f4b590"/>
  <path d="m-82.644,146.3542c-1.3646,2.6339.8826,6.9482 5.0196,9.6394s8.5947,2.7403 9.9614.1088c1.3642-2.6329-1.3376-6.7761-5.4736-9.4679s-8.1424-2.9122-9.5074-.2803z" fill="#f4b490"/>
  <path d="m-82.5835,146.3731c-1.3549,2.6136.8729,6.8933 4.9741,9.5613s8.5232,2.7154 9.8794.1032c1.354-2.6116-1.3227-6.7227-5.4234-9.3917s-8.0757-2.8846-9.4301-.2729z" fill="#f3b490"/>
  <path d="m-82.5239,146.3913c-1.3443,2.5934.8628,6.8389 4.9295,9.4842s8.4504,2.6902 9.7965.0984c1.3437-2.5924-1.3077-6.6704-5.3735-9.3162s-8.0082-2.8584-9.3525-.2665z" fill="#f3b38f"/>
  <path d="m-82.4638,146.4101c-1.3341,2.5731.8531,6.7835 4.8841,9.4061s8.3789,2.6656 9.7143.0939c1.3333-2.5726-1.293-6.6174-5.3232-9.2405s-7.9416-2.8312-9.2752-.2595z" fill="#f3b28e"/>
  <path d="m-82.4042,146.4279c-1.3235,2.5533.8434,6.7287 4.8395,9.3285s8.3065,2.6403 9.6313.089-1.2776-6.5646-5.2729-9.1649-7.8749-2.804-9.198-.2526z" fill="#f2b18f"/>
  <path d="m-82.3453,146.4467c-1.3134,2.5331.8337,6.6743 4.7945,9.2513s8.2346,2.6152 9.5498.0836c1.3124-2.532-1.2635-6.5111-5.2235-9.0892s-7.8074-2.7768-9.1208-.2457z" fill="#f2b18d"/>
  <path d="m-82.285,146.4654c-1.3023,2.5133.8244,6.6194 4.7499,9.1732s8.1622,2.5904 9.4668.0792-1.2486-6.4588-5.1732-9.0136c-3.926-2.5543-7.7408-2.7506-9.0435-.2388z" fill="#f3b08e"/>
  <path d="m-82.2252,146.4843c-1.2931,2.493.8134,6.564 4.704,9.0957s8.0908,2.5652 9.3842.0737-1.2335-6.4054-5.1228-8.9375-7.6732-2.7234-8.9654-.2319z" fill="#f3af8e"/>
  <path d="m-82.1656,146.502c-1.2825,2.4733.8041,6.5097 4.6594,9.018 3.8549,2.5088 8.018,2.5404 9.3022.0687s-1.219-6.3524-5.0735-8.8618c-3.8554-2.5084-7.6062-2.6962-8.8882-.2249z" fill="#f3ae8e"/>
  <path d="m-82.1059,146.5209c-1.2719,2.453.7944,6.4548 4.6144,8.9404s7.946,2.5158 9.2197.0643-1.2035-6.2996-5.0232-8.7862-7.5395-2.6695-8.811-.2185z" fill="#f3ae8d"/>
  <path d="m-82.0463,146.5396c-1.2613,2.4327.7847,6.3999 4.5699,8.8628 3.7848,2.4634 7.874,2.4901 9.1371.0588s-1.1889-6.2462-4.9732-8.7105c-3.7852-2.4624-7.4724-2.6428-8.7337-.2111z" fill="#f2ac8d"/>
  <path d="m-81.9863,146.5584c-1.2511,2.4125.7745,6.3445 4.5244,8.7852s7.8021,2.4648 9.055.0534-1.1743-6.1933-4.9234-8.6344-7.4054-2.6156-8.6561-.2042z" fill="#f2ac8c"/>
  <path d="m-81.9262,146.5761c-1.241,2.3922.7648,6.2902 4.4798,8.7071s7.7298,2.4406 8.9721.0494-1.159-6.1409-4.8731-8.5593-7.3383-2.5884-8.5788-.1973z" fill="#f1ab8c"/>
  <path d="m-81.8662,146.595c-1.2308,2.3729.7551,6.2358 4.4344,8.63 3.6793,2.3952 7.6582,2.4154 8.8899.0445s-1.1443-6.088-4.8227-8.4836c-3.6802-2.3942-7.2716-2.5618-8.5016-.1908z" fill="#f1ab8c"/>
  <path d="m-81.8065,146.6132c-1.2203,2.3521.7454,6.1804 4.3898,8.5523s7.5858,2.3902 8.8074.039-1.1298-6.0351-4.7733-8.408-7.2041-2.5345-8.4239-.1834z" fill="#f2a98a"/>
  <path d="m-81.7465,146.6321c-1.2101,2.3324.7357,6.1261 4.3444,8.4747s7.5139,2.3649 8.7249.0341-1.1144-5.9817-4.7226-8.3318-7.1375-2.5079-8.3467-.177z" fill="#f2a88b"/>
  <path d="m-81.6869,146.6503c-1.1995,2.3121.7255,6.0707 4.2998,8.3966s7.4415,2.3403 8.6423.0292-1.0997-5.9288-4.6731-8.2562-7.0695-2.4807-8.269-.1696z" fill="#f2a88a"/>
  <path d="m-81.6268,146.6692c-1.1894,2.2923.7158,6.0163 4.2543,8.3195s7.3696,2.3151 8.5603.0242-1.0852-5.8764-4.6228-8.1806-7.0033-2.454-8.1918-.1631z" fill="#f2a78a"/>
  <path d="m-81.5672,146.6874c-1.1788,2.2721.7061,5.9609 4.2097,8.2414s7.2977,2.2904 8.4778.0193-1.0703-5.823-4.573-8.1044-6.9362-2.4273-8.1145-.1562z" fill="#f1a689"/>
  <path d="m-81.5083,146.7062c-1.1686,2.2523.6964,5.9066 4.1647,8.1643s7.2257,2.2652 8.3961.0143-1.0561-5.7706-4.5235-8.0293-6.8692-2.4001-8.0373-.1493z" fill="#f0a589"/>
  <path d="m-81.4487,146.7239c-1.158,2.232.6867,5.8522 4.1197,8.0867s7.1538,2.2404 8.3131.009-1.0402-5.7172-4.4732-7.9532c-3.433-2.2345-6.8016-2.3734-7.9596-.1429z" fill="#f0a48a"/>
  <path d="m-81.3886,146.7433c-1.1479,2.2117.6765,5.7968 4.0747,8.009s7.0814,2.2147 8.2306.004-1.0256-5.6648-4.4229-7.878-6.735-2.3462-7.8824-.1354z" fill="#f0a488"/>
  <path d="m-81.329,146.7615c-1.1373,2.1915.6673,5.7414 4.0301,7.9309s7.0091,2.19 8.1477-.0005-1.0097-5.6114-4.3727-7.8024-6.6679-2.319-7.8052-.128z" fill="#f0a388"/>
  <path d="m-81.2689,146.7804c-1.1271,2.1717.6571,5.6871 3.9847,7.8533s6.9376,2.1652 8.0655-.005-.9956-5.559-4.3227-7.7268-6.6008-2.2923-7.7275-.1216z" fill="#f0a288"/>
  <path d="m-81.2093,146.7981c-1.1165,2.1519.6474,5.6327 3.9401,7.7762s6.8651,2.14 7.9831-.0104-.9811-5.5056-4.2729-7.6506-6.5337-2.2656-7.6503-.1152z" fill="#f0a187"/>
  <path d="m-81.1493,146.8174c-1.1064,2.1317.6373,5.5773 3.8946,7.6981s6.7927,2.1153 7.901-.0153-.9661-5.4527-4.223-7.575-6.4667-2.2384-7.5726-.1078z" fill="#f0a187"/>
  <path d="m-81.0892,146.8356c-1.0962,2.1114.628,5.5225 3.8501,7.6205s6.7209,2.0902 7.818-.0203-.951-5.4003-4.1726-7.4993-6.3996-2.2117-7.4954-.1009z" fill="#f09f87"/>
  <path d="m-81.0291,146.8545c-1.0861,2.0911.6179,5.4676 3.8046,7.5429s6.649,2.0649 7.7359-.0252-.9365-5.3469-4.1228-7.4232c-3.1868-2.0748-6.3325-2.185-7.4177-.0944z" fill="#ef9e86"/>
  <path d="m-80.9707,146.8722c-1.0755,2.0714.6081,5.4132 3.7601,7.4653s6.5766,2.0402 7.6534-.0297-.9219-5.2945-4.073-7.3481-6.2654-2.1579-7.3405-.0875z" fill="#ef9c86"/>
  <path d="m-80.9111,146.8911c-1.0649,2.0511.5984,5.3583 3.7155,7.3876s6.5046,2.015 7.5708-.0351c1.0645-2.0501-.9069-5.2411-4.0226-7.2724s-6.1988-2.1302-7.2637-.0801z" fill="#ef9c86"/>
  <path d="m-80.851,146.9099c-1.0548,2.0313.5883,5.3034 3.67,7.3105s6.4327,1.9898 7.4883-.0405c1.0543-2.0298-.8919-5.1883-3.9727-7.1963s-6.1317-2.1035-7.1856-.0737z" fill="#ef9b85"/>
  <path d="m-80.7905,146.9281c-1.0451,2.011.5786,5.2481 3.6246,7.2319s6.3607,1.9656 7.4063-.0445c1.0437-2.0105-.8769-5.1354-3.9229-7.1207-3.0456-1.9834-6.0642-2.0768-7.1079-.0668z" fill="#ef9b84"/>
  <path d="m-80.7313,146.947c-1.034,1.9908.5689,5.1937 3.58,7.1548s6.2884,1.9403 7.3237-.0499c1.0337-1.9898-.8623-5.0825-3.873-7.045s-5.9971-2.0496-7.0307-.0598z" fill="#ef9b84"/>
  <path d="m-80.6713,146.9652c-1.0239,1.971.5592,5.1388 3.535,7.0772s6.2164,1.9146 7.2412-.0554-.8469-5.0291-3.8227-6.9689-5.93-2.0229-6.9535-.0529z" fill="#ef9983"/>
  <path d="m-80.6117,146.9836c-1.0133,1.9512.5494,5.0844 3.4904,7.0001s6.1441,1.8899 7.1587-.0598-.8324-4.9762-3.7729-6.8938c-2.9401-1.9146-5.8629-1.9957-6.8762-.0465z" fill="#ef9883"/>
  <path d="m-80.552 147c-1.0031 1.9309 0.5393 5.0296 3.445 6.9219s6.0726 1.8652 7.0762-0.0643-0.8174-4.9238-3.7221-6.8181c-2.9057-1.8924-5.7963-1.969-6.799-0.0395z" fill="#ee9783"/>
  <path d="m-80.492,147.0212c-.9925,1.9107.53,4.9747 3.4004,6.8444s6.0002,1.8395 6.994-.0697-.8027-4.8704-3.6731-6.7425-5.7292-1.9418-6.7213-.0321z" fill="#ee9783"/>
  <path d="m-80.4319,147.0389c-.9824,1.8904.5199,4.9198 3.3554,6.7667 2.8342,1.8479 5.9278,1.8153 6.9111-.0747s-.7878-4.8175-3.6224-6.6664c-2.835-1.8464-5.6626-1.9151-6.6441-.0257z" fill="#ee9682"/>
  <path d="m-80.373,147.0577c-.9722,1.8706.5106,4.8654 3.3103,6.6896s5.8559,1.79 6.829-.0796-.7732-4.7651-3.5725-6.5912c-2.8002-1.8237-5.5955-1.8879-6.5668-.0188z" fill="#ed9482"/>
  <path d="m-80.313,147.0759c-.9621,1.8509.5,4.8101 3.2649,6.6115s5.7839,1.7649 6.7469-.0845-.7586-4.7117-3.5226-6.5151-5.5284-1.8613-6.4892-.0119z" fill="#ed9482"/>
  <path d="m-80.2533,147.0948c-.9515,1.8311.4907,4.7557 3.2203,6.5344s5.712,1.7396 6.6639-.09-.7432-4.6588-3.4723-6.4395-5.4609-1.8341-6.4119-.005z" fill="#ee9482"/>
  <path d="m-80.1933,147.113c-.9413,1.8103.4806,4.7003 3.1749,6.4563s5.6401,1.7149 6.5819-.0944-.7282-4.6059-3.4224-6.3638-5.3943-1.8074-6.3343.002z" fill="#ee9282"/>
  <path d="m-80.1332,147.1319c-.9312,1.7906.4709,4.6459 3.1303,6.3787s5.5677,1.6897 6.4993-.0994-.7136-4.553-3.3726-6.2877-5.3267-1.7807-6.257.008z" fill="#ed9182"/>
  <path d="m-80.0741,147.1501c-.9202,1.7703.4612,4.5906 3.0853,6.301s5.4958,1.665 6.4168-.1048-.6986-4.5001-3.3223-6.2121-5.2601-1.7535-6.1798.0158z" fill="#ed9181"/>
  <path d="m-80.014,147.169c-.91,1.75.451,4.5362 3.0403,6.2234s5.4234,1.6403 6.3343-.1093-.6836-4.4472-3.2724-6.1364-5.193-1.7268-6.1021.0222z" fill="#ed9081"/>
  <path d="m-79.9539,147.1867c-.8999,1.7302.4418,4.4813 2.9952,6.1463s5.3519,1.6146 6.2522-.1142-.669-4.3948-3.2225-6.0613c-2.5535-1.664-5.1259-1.6996-6.0249.0292z" fill="#ed8e81"/>
  <path d="m-79.8943,147.2055c-.8893,1.71.432,4.4265 2.9507,6.0682s5.2795,1.5898 6.1692-.1192-.654-4.3414-3.1722-5.9856-5.0588-1.6719-5.9477.0366z" fill="#ed8d80"/>
  <path d="m-79.8343,147.2242c-.8791,1.6902.4219,4.3716 2.9057,5.9901s5.2071,1.5651 6.0871-.1241-.6395-4.2885-3.1228-5.9095-4.9918-1.6457-5.87.0435z" fill="#ed8d80"/>
  <path d="m-79.7746,147.2431c-.8685,1.6699.4122,4.3167 2.8606,5.913s5.1352,1.5394 6.0046-.1295-.6245-4.2351-3.0725-5.8334-4.9242-1.619-5.7928.0499z" fill="#ed8c7f"/>
  <path d="m-79.7153,147.2608c-.8588,1.6502.402,4.2618 2.8152,5.8359s5.0633,1.5147 5.9225-.1345-.6095-4.1827-3.0222-5.7577c-2.4127-1.573-4.8581-1.5923-5.7155.0564z" fill="#ed8a7f"/>
  <path d="m-79.6557,147.2797c-.8482,1.6299.3923,4.207 2.7706,5.7573s4.9909,1.4905 5.84-.1389-.5949-4.1293-2.9727-5.6821-4.7905-1.5646-5.6379.0638z" fill="#ed8a7e"/>
  <path d="m-79.5949,147.2984c-.8376,1.6091.3826,4.1521 2.7252,5.6796s4.9194,1.4648 5.7575-.1439-.5799-4.077-2.922-5.6065-4.7239-1.5384-5.5606.0707z" fill="#eb897d"/>
  <path d="m-79.536,147.3172c-.8275,1.5899.3729,4.0972 2.6806,5.6025s4.847,1.4396 5.6749-.1493-.5649-4.024-2.8721-5.5308c-2.3072-1.5043-4.6568-1.5112-5.4834.0776z" fill="#eb877c"/>
  <path d="m-79.4764,147.3349c-.8169,1.5696.3632,4.0428 2.6356,5.5249s4.7751,1.4144 5.5929-.1537-.5503-3.9712-2.8222-5.4557-4.5897-1.4841-5.4062.0845z" fill="#eb877c"/>
  <path d="m-79.4163,147.3546c-.8067,1.5493.3535,3.988 2.5905,5.4468s4.7032,1.3896 5.5099-.1587-.5353-3.9183-2.7719-5.3796-4.5226-1.4569-5.3285.0915z" fill="#eb867b"/>
  <path d="m-79.3563,147.3729c-.7966,1.5295.3433,3.9331 2.5455,5.3697s4.6303,1.3644 5.4273-.1641-.5203-3.8649-2.7221-5.3034-4.4556-1.4307-5.2508.0979z" fill="#ea847b"/>
  <path d="m-79.2962,147.3916c-.7864,1.5093.3336,3.8777 2.5005,5.2916s4.5584,1.3397 5.3453-.1686-.5058-3.812-2.6722-5.2283c-2.166-1.4129-4.3885-1.4035-5.1736.1053z" fill="#ea837b"/>
  <path d="m-79.2366,147.4098c-.7758,1.4895.3239,3.8233 2.4555,5.2145s4.4869,1.3145 5.2632-.174-.4908-3.7591-2.6223-5.1522-4.3214-1.3768-5.0964.1117z" fill="#ea837b"/>
  <path d="m-79.1765,147.4278c-.7657,1.4687.3138,3.7685 2.4105,5.1364s4.4145,1.2898 5.1802-.1785-.4758-3.7062-2.572-5.077-4.2543-1.3491-5.0187.1191z" fill="#ea8179"/>
  <path d="m-79.1169,147.4472c-.7551,1.4494.3045,3.7136 2.3655,5.0592s4.3426,1.2641 5.0981-.1839c.7547-1.448-.4612-3.6533-2.5221-5.0014-2.0605-1.3442-4.1872-1.3224-4.9415.1261z" fill="#ea8078"/>
  <path d="m-79.0585,147.4654c-.7445,1.4292.2948,3.6592 2.3209,4.9816s4.2707,1.2394 5.0156-.1883-.4462-3.6004-2.4723-4.9257c-2.0252-1.3214-4.1202-1.2957-4.8642.1325z" fill="#ea8078"/>
  <path d="m-78.9984,147.4835c-.7344,1.4089.2847,3.6039 2.2755,4.904s4.1983,1.2141 4.9331-.1938-.4312-3.5475-2.422-4.8496-4.0531-1.269-4.7866.1394z" fill="#ea7e77"/>
  <path d="m-78.9388,147.5022c-.7238,1.3886.275,3.549 2.2309,4.8259s4.1263,1.1894 4.8506-.1982-.4166-3.4951-2.3721-4.774-3.986-1.2418-4.7093.1463z" fill="#ea7d78"/>
  <path d="m-78.8783,147.5204c-.7141,1.3689.2648,3.4946 2.1858,4.7483 1.9202,1.2552 4.054,1.1647 4.768-.2032s-.4016-3.4417-2.3218-4.6983c-1.9197-1.2532-3.9194-1.2151-4.6321.1533z" fill="#e97c77"/>
  <path d="m-78.8187,147.5391c-.7035,1.3491.2555,3.4397 2.1408,4.6712 1.8849,1.2324 3.982,1.1395 4.6859-.2086s-.3866-3.3888-2.2723-4.6227c-1.8844-1.2305-3.8518-1.1874-4.5544.1602z" fill="#e97c77"/>
  <path d="m-78.7586,147.5578c-.6933,1.3283.2454,3.3844 2.0958,4.593s3.9097,1.1143 4.603-.2136-.372-3.3354-2.2216-4.5466-3.7857-1.1607-4.4772.1671z" fill="#e97a76"/>
  <path d="m-78.699,147.5765c-.6827,1.308.2357,3.3295 2.0508,4.5149 1.8147,1.1869 3.8382,1.0896 4.5209-.218s-.357-3.283-2.1717-4.4709-3.7181-1.1341-4.4.174z" fill="#e97a76"/>
  <path d="m-78.6394,147.5952c-.6721,1.2883.226,3.2751 2.0058,4.4378s3.7662,1.0643 4.4388-.223-.3425-3.2306-2.1219-4.3958c-1.7794-1.1622-3.651-1.1069-4.3227.1809z" fill="#e87975"/>
  <path d="m-78.58,147.6134c-.6624,1.2685.2163,3.2202 1.9608,4.3607s3.6938,1.0391 4.3563-.2284-.3275-3.1772-2.072-4.3197-3.584-1.0802-4.2451.1874z" fill="#e87975"/>
  <path d="m-78.5197,147.6321c-.6514,1.2483.2065,3.1654 1.9158,4.2821s3.6219,1.0149 4.2737-.2328-.3125-3.1243-2.0217-4.244-3.5173-1.053-4.1678.1948z" fill="#e87875"/>
  <path d="m-78.4608,147.6504c-.6412,1.228.1968,3.1105 1.8712,4.205 1.6739,1.096 3.55.9897 4.1912-.2378s-.2979-3.0714-1.9718-4.1684c-1.6735-1.0935-3.4502-1.0263-4.0906.2012z" fill="#e87775"/>
  <path d="m-78.4007,147.6691c-.6311,1.2087.1867,3.0561 1.8262,4.1279s3.4776.964 4.1083-.2432-.2824-3.018-1.9215-4.0928-3.3832-.9991-4.0129.2081z" fill="#e87673"/>
  <path d="m-78.3407,147.6878c-.6209,1.1884.1765,3.0012 1.7807,4.0498s3.4057.9393 4.0266-.2482-.2683-2.9651-1.8721-4.0166-3.3156-.9724-3.9352.215z" fill="#e87673"/>
  <path d="m-78.2811,147.706c-.6103,1.1682.1668,2.9463 1.7362,3.9721s3.3333.9145 3.9436-.2526-.2533-2.9127-1.8218-3.941-3.249-.9457-3.858.2215z" fill="#e87573"/>
  <path d="m-78.221,147.7242c-.6002,1.1484.1576,2.892 1.6911,3.895s3.2614.8893 3.8611-.2581-.2379-2.8594-1.7715-3.8654c-1.5327-1.0021-3.1815-.9185-3.7808.2284z" fill="#e87473"/>
  <path d="m-78.161,147.7423c-.59,1.1281.1474,2.8366 1.6461,3.8169s3.189.8646 3.779-.263-.2233-2.8064-1.722-3.7892-3.1148-.8918-3.7031.2353z" fill="#e87472"/>
  <path d="m-78.1013,147.761c-.5795,1.1079.1377,2.7817 1.6011,3.7393s3.1175.8394 3.6965-.2679-.2083-2.7536-1.6717-3.7141-3.0478-.8646-3.6259.2427z" fill="#e87472"/>
  <path d="m-78.0417,147.7803c-.5689,1.0876.128,2.7269 1.5557,3.6617 1.4277.9363 3.0456.8142 3.6144-.2724s-.1937-2.7012-1.6214-3.6389c-1.4272-.9333-2.9811-.8374-3.5486.2497z" fill="#e87272"/>
  <path d="m-77.9817,147.7979c-.5587,1.0678.1183,2.6725 1.5111,3.5846s2.9732.789 3.5319-.2783-.1787-2.6478-1.572-3.5623-2.9136-.8107-3.471.2561z" fill="#e87171"/>
  <path d="m-77.9216,147.8166c-.5486,1.048.1081,2.6171 1.4661,3.5065s2.9008.7643 3.4489-.2828-.1637-2.5949-1.5212-3.4867-2.847-.7841-3.3938.263z" fill="#e86f70"/>
  <path d="m-77.862,147.8353c-.538,1.0273.0984,2.5622 1.421,3.4289s2.8289.7391 3.3668-.2877-.1492-2.542-1.4718-3.411-2.7794-.7574-3.3161.2699z" fill="#e86f70"/>
  <path d="m-77.8031,147.854c-.5278,1.0075.0887,2.5079 1.3765,3.3512s2.7565.7143 3.2843-.2927-.1346-2.4891-1.4219-3.3354c-1.286-.8429-2.7124-.7302-3.2388.2768z" fill="#e86e70"/>
  <path d="m-77.743,147.8722c-.5177.9877.079,2.453 1.331,3.2736s2.6846.6896 3.2018-.2976-.1191-2.4357-1.3716-3.2598-2.6453-.7025-3.1612.2838z" fill="#e76d6f"/>
  <path d="m-77.6834,147.8909c-.5071.967.0693,2.3976 1.286,3.196s2.613.6639 3.1197-.3026-.1046-2.3833-1.3213-3.1841-2.5786-.6763-3.0844.2907z" fill="#e76c6f"/>
  <path d="m-77.6238,147.9097c-.4965.9472.0596,2.3432 1.2414,3.1189s2.5407.6387 3.0372-.308-.0896-2.3299-1.2715-3.1085c-1.181-.7742-2.5116-.6491-3.0072.2976z" fill="#e76c6f"/>
  <path d="m-77.5637,147.9284c-.4863.9269.0494,2.2884 1.1964,3.0403s2.4683.6145 2.9542-.3119-.0746-2.2775-1.2211-3.0329c-1.1457-.7514-2.4445-.6224-2.9295.3045z" fill="#e76a6f"/>
  <path d="m-77.5041,147.9466c-.4757.9071.0397,2.2335 1.1514,2.9632s2.3964.5893 2.8725-.3174-.06-2.2241-1.1717-2.9567-2.3774-.5952-2.8523.311z" fill="#e7696d"/>
  <path d="m-77.4436,147.9646c-.466.8869.0296,2.1786 1.106,2.8855s2.3244.5641 2.79-.3228-.045-2.1712-1.1214-2.8811-2.3103-.5685-2.7746.3184z" fill="#e6676d"/>
  <path d="m-77.3844,147.984c-.455.8671.0199,2.1237 1.0614,2.8079 1.0406.6857 2.2525.5394 2.7075-.3273s-.0304-2.1188-1.0715-2.8055c-1.0398-.6832-2.2432-.5418-2.6974.3248z" fill="#e7666d"/>
  <path d="m-77.324,148.0022c-.4453.8473.0101,2.0694 1.0164,2.7303s2.1801.5141 2.6245-.3322-.015-2.0654-1.0212-2.7298c-1.0045-.66-2.1761-.5141-2.6197.3317z" fill="#e7666d"/>
  <path d="m-77.2643,148.0203c-.4347.8266.0004,2.0145.9714,2.6527s2.1082.4889 2.5425-.3372-.0005-2.013-.9714-2.6547-2.1091-.4869-2.5424.3391z" fill="#e6656c"/>
  <path d="m-47.3385,147.2302c.2754-.4054-.0344-.2749-.5088-1.6047-.4303-.9892-.8915-2.2261-.4193-2.0362 .0106-.6669.9903.3668 1.4639,1.4623 .252.6135.444,1.2186.3014,1.8825-.3645.9037-.9647.397-.8372.2961z" fill="#26231f"/>
  <path d="m-66.0488,139.2193c.1064.3614-.9488.9081-2.1395,1.2735-1.1889.3599-1.9158.9007-2.2009.7089-.3098-.1849.4391-1.5399 1.8575-1.9547 1.3478-.4128 2.3858-.35 2.4829-.0277z" fill="#26231f"/>
  <path d="m-62.437 153.88s3.4639-6.8078 4.0646 0.7841c0 0-2.5517 1.0564-4.0646-0.7841z" fill="#f4b891"/>
  <path d="m-62.333 153.89s3.317-6.52 3.8925 0.7504c0 0-2.4436 1.0119-3.8925-0.7504z" fill="#f4b38b"/>
  <path d="m-62.229 153.89s3.1704-6.2313 3.7208 0.7178c0 0-2.3359 0.967-3.7208-0.7178z" fill="#f2af85"/>
  <path d="m-62.124 153.9s3.0235-5.9436 3.5482 0.6842c0 0-2.2278 0.9225-3.5482-0.6842z" fill="#f2a97f"/>
  <path d="m-62.021 153.91s2.877-5.6554 3.3765 0.6516c0 0-2.1201 0.877-3.3765-0.6516z" fill="#f2a579"/>
  <path d="m-61.916 153.91s2.7304-5.3667 3.2044 0.6184c0 0-2.012 0.8325-3.2044-0.6184z" fill="#f09e74"/>
  <path d="m-61.811 153.92s2.5835-5.079 3.0328 0.5853c0 0-1.9043 0.788-3.0328-0.5853z" fill="#ef9a6e"/>
  <path d="m-61.707 153.92s2.437-4.7908 2.8602 0.5522c0 0-1.7962 0.7435-2.8602-0.5522z" fill="#ef9469"/>
  <path d="m-61.603 153.93s2.2904-4.5026 2.6885 0.5186c0 0-1.6881 0.6985-2.6885-0.5186z" fill="#ee8f62"/>
  <path d="m-61.498 153.94s2.1439-4.2144 2.5164 0.4859c0 0-1.5799 0.6535-2.5164-0.4859z" fill="#ec875a"/>
  <path d="m-61.9955,152.7858c-.199-.0351-.1139-1.7792 1.7781-2.4668 1.0005-.1928 1.839.5997 1.9683,1.2922 .1995.7267-.2692,1.1108-.3332,1.0006-.2224-.2096-.4607-1.1365-1.4458-1.007-.9096.2635-1.662,1.4168-1.9674,1.181z" fill="#26231f"/>
  <path d="m-42.713 157.76c0.06 0.0712-1.5587 1.9255-4.7738 4.0389-3.1483 2.1035-8.2315 4.8289-13.987 3.7882-11.673-2.5494-17.131-13.22-16.861-13 0.1708-0.5487 5.829 8.8925 16.911 11.258 11.322 1.7341 18.62-6.8903 18.71-6.085z" fill="#26231f"/>
  <path d="m-40.9707,159.1704c.0221.435-1.2494.2709-1.8862-.8147-.6801-1.0025-.6968-2.1322-.3764-2.1959 .3164-.0717.756.5982 1.3041,1.4099 .5411.8414.9396,1.2275.9585,1.6007z" fill="#26231f"/>
  <path d="m-77.3467,151.7849c.2591.2136-.3252,1.1197-1.2966,1.3946-.9638.2847-1.8664-.1636-1.7393-.5003 .1258-.3589.6717-.5502 1.4462-.7603 .7675-.2338 1.316-.3816 1.5896-.134z" fill="#26231f"/>
  <path d="m-55.9464,165.5305c.0279.221-1.0588.301-2.1055,1.6131-.5322.6427-1.0049,1.5542-1.6166,2.6255-.3588.4741-.5847,1.2675-1.6867,1.5221-1.1205-.129-1.5111-.9319-1.9017-1.5523-2.3059-5.1586-6.2831-6.8982-6.0862-7.3204-.0662-.3421 4.6286,1.1993 7.0655,6.6169 1.1558,2.9103 2.2644-1.7856 3.655-2.5553 1.4334-1.3718 2.7256-1.0812 2.6761-.9496z" fill="#26231f"/>
  <path d="m-44.8872,152.8412c-.0746.2526-.3906.3629-.707.2462s-.5124-.4162-.4382-.6689 .3919-.3634.7074-.2467 .5124.4153.4378.6694z" fill="#9e2c14"/>
  <path d="m-42.1403,152.1287c-.0746.2531-.3906.3629-.7074.2462s-.5115-.4153-.4369-.6684 .3901-.3639.7061-.2472 .5128.4167.4382.6694z" fill="#9e2c14"/>
  <path d="m-43.358,154.7269c-.0737.2526-.391.3629-.707.2462s-.5119-.4167-.4382-.6689 .3915-.3639.7079-.2477 .5119.4177.4374.6704z" fill="#9e2c14"/>
  <path d="m-48.4232,154.075c-.0741.2541-.3915.3634-.7074.2472s-.5128-.4167-.4382-.6698 .3915-.3634.7079-.2462 .5119.4167.4378.6689z" fill="#9e2c14"/>
  <path d="m-75.2063,147.1341c-.0741.2526-.391.3634-.707.2467s-.5128-.4167-.4382-.6698 .3915-.3634.7079-.2462 .5124.4153.4374.6694z" fill="#9e2c14"/>
  <path d="m-74.1621,150.362c-.0741.2521-.3901.3634-.7066.2467s-.5124-.4167-.4378-.6694 .3906-.3634.707-.2462 .5119.4158.4374.6689z" fill="#9e2c14"/>
  <path d="m-79.181,147.0887c-.0741.2526-.391.3639-.7079.2467s-.5115-.4167-.4369-.6694 .3906-.3634.7066-.2467 .5124.4167.4382.6694z" fill="#9e2c14"/>
  <path d="m-71.2792,149.1926c-.0746.2526-.391.3634-.7074.2462s-.5124-.4162-.4378-.6689 .3915-.3634.7074-.2467 .5124.4162.4378.6694z" fill="#9e2c14"/>
  <path d="m-15.214 141.21s9.1257 7.4153 8.5885 8.2172-52.605 18.239-52.605 18.239l-6.4415-3.6079s46.88-23.05 50.458-22.848z" fill="#26231f"/>
  <path d="m-123.11 148.83s3.0411-7.0154 5.7252-7.8172 64.71 26.445 64.173 26.846-8.0845 3.1946-9.6949 3.1946-59.309-22.224-60.204-22.224z" fill="#26231f"/>
  <path d="m-4.1196 148.43-8.0043 54.195-46.39 15.154-5.3682-48.505 58.531-22.718 1.2309 1.8726z" fill="#26231f"/>
  <path d="m-124.18 147.22 1.5799-1.9305 51.741 21.974s3.5783 47.301 3.2204 47.902-42.71-9.9231-44.5-11.326-12.4-57.822-12.042-56.62z" fill="#26231f"/>
  <path d="m-68.534 214.57s0.8941 5.4122 5.5465 5.6124 6.084-3.0056 6.442-4.8105l-1.2525-47.903s-7.5153 5.211-14.314-1.0021l3.5782 48.103z" fill="#26231f"/>
  <path d="m-79.27 137.4 0.3579 3.2079s6.6203-5.4122 6.6203-4.2095-3.5782 3.4076-2.6837 4.2095c0.895 0.8008 2.5054 1.0015 2.5054 1.0015s7.5149-7.0149 8.4094-6.4138-1.2529 4.8101-0.1792 5.0103 1.6109-5.4112 2.685-5.0103-2.1484 8.2177-0.1801 8.2177 1.9692-8.4178 3.3999-7.2157-0.8945 9.8214 0.3575 9.6207 3.0425-0.4004 3.0425-0.4004l0.8945-8.8193 1.0733 6.8147s2.147-7.0149 2.5049-4.4092 6.9786 8.4179 7.6944 6.4138 2.1333-6.2669-4.1158-11.425c-6.7989-5.6119-11.451-2.2048-11.451-2.2048s-10.736-11.024-20.935 5.6119z" fill="#26231f"/>
  <path d="m-55.49 170.84s48.665-20.017 48.855-18.739-7.7937 48.338-7.7937 48.338-39.92 15.119-39.92 13.415-1.1408-43.014-1.1408-43.014z" fill="#f5b700"/>
  <path d="m-121.45 149.97 47.801 19.777 1.4343 42.615-38.97-9.3691-10.266-53.022z" fill="#f1a307"/>
  <path d="m-72.599 170.2s7.0474 6.9837 15.937 0.9333l0.116 44.238s-8.6397 4.6573-13.392-1.7311c-1.5204-5.1107-2.6612-43.44-2.6612-43.44z" fill="#f9cf00"/>
  <path d="m-63.976 165.34s4.0579 2.4539 5.7389 1.5122 48.498-19.285 48.498-19.285-4.4031-5.5373-6.9239-4.1254-48.363 21.428-47.313 21.898z" fill="#fefbde"/>
  <path d="m-118.77 145.56 2.5213-2.8243 53.174 22.604-5.1758 1.7649-50.519-21.545z" fill="#fefbde"/>
  <path d="m-58.012 168.11 1.9131 1.3862 51.311-20.293-0.5627-1.1341-52.661 20.041z" fill="#f9cf00"/>
  <path d="m-123.28 147.31 1.2375-1.1345 51.536 21.428-2.9255 1.2611-49.848-21.554z" fill="#f9cf00"/>
  <path d="m-71.965 169.12s3.3774 2.5148 6.5263 2.6473c5.9635 0.2521 8.2143-1.2606 8.8895-1.8909s-2.1373-1.5122-2.1373-1.5122-4.2768 1.8904-5.9644 1.8904-5.4013-2.0165-5.4013-2.0165l-1.9127 0.8819z" fill="#fbdf00"/>
  <path d="m-89.48 210.45-1.9467 13.303s21.611 17.447 55.68 3.2712l-2.3363-15.048-14.612 5.0617s-11.94 10.112-20.312-1.6645l-16.474-4.9238z" fill="#e20224"/>
  <path d="m-58.134 235.53s0.5834 27.042 0.5834 29.223-3.3902 5.6565-2.2225 6.3104c1.1682 0.6551 4.7535-4.1293 4.7535-4.1293s3.3095-30.532 2.9202-31.84-5.2566 1.3086-6.0346 0.436z" fill="#f4b891"/>
  <path d="m-79.356 232.26s4.0884 1.9631 7.2032 1.7451l2.531 32.712s3.6996 7.8509 1.3632 6.7608-3.505-5.6698-3.505-5.6698l-7.5925-35.548z" fill="#f4b891"/>
  <path d="m-53.74 266.75s1.4828 2.2473 0.6982 3.2242c-0.7851 0.9773-3.8382 5.8621-8.8096 6.2531l-2.3549-4.201s2.5292-3.4195 4.7972-4.5921c0 0-3.2481 4.1813-2.0932 5.0805 2.0058 1.5627 5.4075-1.2695 7.7624-5.7647z" fill="#e20224"/>
  <path d="m-67.696 267.24s8.5479 13.678 5.4953 14.948-10.467-6.6437-10.554-12.017l0.3491-0.7816s4.3607 8.4025 6.28 5.6668c1.1766-1.6783-2.3553-6.4484-1.5702-7.8162z" fill="#e20224"/>
  <path d="m-48.749 161.25c-0.0613-0.1157 1.6055-1.3768 4.4644-3.0942 2.8549-1.7238 6.9023-3.8816 11.466-6.0084 9.1288-4.2623 16.808-6.8676 16.881-6.6115 0.0834 0.2749-7.4419 3.3018-16.533 7.5468-4.5468 2.1188-8.6128 4.1615-11.526 5.7123-2.9158 1.5443-4.6877 2.5801-4.753 2.455z" fill="#26231f"/>
  <path d="m-34.245 154.86c-0.0931-0.2497 4.629-2.6671 10.694-4.9381 6.0615-2.28 11.118-3.5781 11.18-3.3186 0.0693 0.2798-4.8607 2.0105-10.892 4.2796-6.0346 2.2592-10.885 4.244-10.983 3.9771z" fill="#26231f"/>
  <path d="m-87.9804,156.7213c-.0701.1296-1.5075-.7405-3.8941-1.9794-2.3822-1.2497-5.7394-2.804-9.5224-4.3261l-9.7316-3.8243c-2.4877-1.0065-3.9984-1.7243-3.9578-1.8558s1.621.3431 4.1568,1.1746c2.5336.8394 6.0328,2.0175 9.8397,3.5524s7.1696,3.2113 9.5016,4.6385c2.3391,1.4173 3.6678,2.5113 3.6078,2.6201z" fill="#26231f"/>
  <path d="m-49.224 176.16s-1.9021 17.845 0.7136 17.845 31.861-8.2557 32.336-11.452 4.9932-19.71 2.3779-18.911-32.574 8.5232-35.428 12.518z" fill="#ee940c"/>
  <path d="m-69.434 175.63s3.5667 2.9291 6.8952 0.7989 0.2379 36.222 0.2379 36.222-2.3774 1.5988-4.0421-0.266-3.091-36.755-3.091-36.755z" fill="#f5b900"/>
  <path d="m-42.085 139.57s14.787-21.298 27.859-26.918l1.188 5.0286s-4.489 1.4796-7.5258 5.9164 8.8463-3.2543 10.827-3.2543-0.132 2.6621-0.132 2.6621-11.487 6.2116-11.883 7.2472 0.6602 1.0352 1.3205 0.8874 12.147-3.2539 12.147-3.2539-10.035 4.7329-10.431 5.0286 8.0537 0.4439 8.0537 0.4439-25.344 5.5056-29.436 8.6112c0 0-1.8549-1.0683-1.9868-2.3992z" fill="#855c12"/>
  <path d="m-41.324 139.24s17.691-22.407 25.33-25.335c0 0 1.6081 2.2523 0.3014 2.4772-1.3068 0.2254-9.7502 6.3055-10.454 9.1203-0.7035 2.8154 3.3174-0.2249 2.9154 0.3377s-6.6344 5.8556-6.6344 5.8556 15.781-9.3467 15.982-8.6705-0.2013 1.0139-0.2013 1.0139-13.268 6.868-13.67 8.3318 6.6344 0 6.3325 0.225-13.47 3.6028-15.379 5.0671-4.0204 2.2518-4.5231 1.5766z" fill="#b29106"/>
  <path d="m-27.664 116.74 0.313 0.5255s-12.121 12.79-13.764 20.148l-1.0164-0.4379s8.5237-16.118 14.467-20.235z" fill="#855c12"/>
  <path d="m-57.5373,133.0376c0,0 .9387,7.4455.2348,9.811-.263.8839 1.2511.7885 1.2511.526s1.8765-6.3955 1.4078-8.848c0,0 2.3461,1.577 2.1113,3.942l1.4078-3.0655c0,0 1.2511,1.4015 2.4242,3.5035s3.91,3.942 4.3792,3.942-.6253-3.592-2.346-6.2195-5.1612-4.9055-7.2725-4.818-3.9101.5255-3.5976,1.2265z" fill="#855c12"/>
  <path d="m-58.7884,132.2494c0,0-3.4405-2.453-6.7252-2.6285-3.2848-.175-9.2281,2.803-10.5573,5.081s-2.0332,3.2415-2.0332,3.2415l.0781.6125c0,0 4.614-5.168 6.8034-5.2555s.391,2.453.391,2.453l-2.9714,3.6785 1.0949.701c0,0 6.3342-7.183 8.2894-7.271 1.9545-.0875.2343,5.256 1.0163,4.293s1.486-4.8185 2.2679-4.293-.4691,6.658-.4691,6.658l.1563,2.2775c0,0 .7824-6.6574 2.0336-6.8329 1.2511-.175 2.6585,1.7525 2.9714.8765s.4691-3.504.4691-3.504-2.3461.6135-2.8152-.0875z" fill="#855c12"/>
  <path d="m-39.707,142.5854c0,0 .391.877.5472,1.49 0,0 17.9083-6.57 24.3208-6.7455 0,0-21.5841,3.8545-24.5555,4.9935s-.3125.262-.3125.262z" fill="#855c12"/>
  <path d="m-39.415 138.11s21.813-23.195 22.818-22.857c1.0049 0.3377 0.3014 0.7885 0.3014 0.7885s-21.712 19.366-23.12 22.068z" fill="#cfa800"/>
  <path d="m-35.796 135.86c0.2092-0.2684 21.812-13.85 22.416-13.062s-0.1007 1.3516-0.7039 1.2394-22.416 12.723-21.712 11.822z" fill="#cfa800"/>
  <path d="m-38.811 139.92s15.279-6.6431 21.511-6.3055c0 0-4.2217 1.2389-6.0311 1.6892s-16.083 5.1794-15.48 4.6163z" fill="#cfa800"/>
  <path d="m-80.828 138.11s-8.1419-16.101-10.253-19.591-5.0262-5.5175-5.0262-5.5175 1.4074 2.0269 2.0106 2.3645 3.4176 6.6431 3.0156 7.0935-10.253-7.4311-10.253-7.4311l-0.7035 0.788s16.485 15.088 16.283 16.214-10.554-8.2197-10.554-8.2197l-6.4459-2.0338-0.6907-0.2185s6.9353 2.2518 6.2319 4.0537-6.0306 0.3377-5.8298 0.7881 8.544 3.8288 8.7452 4.8422-8.544-0.3382-9.1472-0.1127c-0.6033 0.2249 0.6029 1.0134 0.6029 1.0134s11.057 3.2653 10.756 3.3779-11.158 0.7879-11.158 0.7879-2.4127 1.6888 1.3067 1.2384 10.252 0.3382 12.162 1.2389 5.7297 2.8148 6.9359 2.0264 2.0103-2.7027 2.0103-2.7027z" fill="#b29106"/>
  <path d="m-95.503 120.66s10.052 11.147 12.364 16.327l1.0052-0.2249s-6.8356-13.286-13.369-16.102z" fill="#cfa800"/>
  <path d="m-100.63 136.2s12.364 1.6892 16.284 3.4906l0.8045-0.5631s-10.555-4.6163-17.088-2.9276z" fill="#cfa800"/>
  <path d="m-98.519 127.53s9.7497 6.4177 12.263 9.1204c0 0 1.3073-0.2254 1.0054-0.1127s-10.655-8.5568-13.268-9.0076z" fill="#cfa800"/>
  <path d="m-61.026 131.02s-7.7399-2.9281-13.57 2.3645c0 0 4.6237-3.7156 13.57-2.3645z" fill="#cfa800"/>
  <path d="m-55.196 132.15s6.1313 0.2249 9.5488 7.7688c0 0-5.4269-7.4311-9.5488-7.7688z" fill="#cfa800"/>
  <path d="m-56.201 133.16s2.9123 6.2397 0.1496 10.214l-0.7524 0.1453s2.211-1.1261 0.6028-10.359z" fill="#cfa800"/>
  <path d="m-73.39 139.13s2.3121-5.9673 8.8458-7.6566c0 0-5.5284 2.9276-8.8458 7.6566z" fill="#cfa800"/>
  <path d="m-61.528 131.36s-1.7379 0.8943-1.8743 5.7958c0 0 0.4669-4.5565 1.8743-5.7958z" fill="#cfa800"/>
  <path d="m-59.719 132.49s-2.4122 4.6163-1.9096 8.4446c0 0 1.2061-7.3189 1.9096-8.4446z" fill="#cfa800"/>
  <path d="m-44.498 136.2s1.7776-4.7295 3.9997-2.2404 4.2217 9.4589 2.2225 10.206-5.7778-6.9694-6.2222-7.965z" fill="#26231f"/>
  <path d="m-44.053 136.64s1.2926-3.4387 2.9083-1.6294 3.0698 6.878 1.6157 7.4208-4.2009-5.0676-4.524-5.7914z" fill="#e20224"/>
  <path d="m-78.94 133.71c-0.6734 0.4855-7.3325 4.9782-6.2217 6.4716s2.4542 1.8079 2.4542 1.8079 4.3271-3.2993 4.603-4.0468 2.2755-6.4726-0.8354-4.2327z" fill="#26231f"/>
  <path d="m-79.293 134.3c-0.4643 0.3347-5.0509 3.4289-4.2857 4.4576s1.6903 1.2453 1.6903 1.2453 2.9807-2.2725 3.1709-2.7877 1.5671-4.4581-0.5755-2.9152z" fill="#e20224"/>
  <path d="m-90.003 219.95s28.728 14.481 52.594 1.9804l0.1108 0.9907s-19.005 12.501-52.484-2.2286l-0.2207-0.7425z" fill="#fff"/>
  <path d="m-89.441 220.73s-0.6823 2.235 0.6298 2.6463 2.4679-1.2339 2.4679-1.2339l0.7873 0.2338s-1.2075 2.4115 0.2621 2.9998 3.2027-1.6467 3.2027-1.6467l1.1549 0.353s-0.7352 2.5281 0.5247 2.8228 2.6775-1.882 2.6775-1.882l1.4175 0.529s-1.0499 2.7056 0.6298 2.8233 2.1523-2.2933 2.1523-2.2933l1.5231 0.2348s-0.5769 3.3512 1.47 3.2341 2.0998-2.7634 2.0998-2.7634l1.8898 0.2353s-0.9448 3.1757 0.8398 3.1757 2.5725-2.8233 2.5725-2.8233l1.5751 0.1177s-0.1572 3.0576 1.7847 2.7639 2.0477-2.6463 2.0477-2.6463l1.5221-0.1177s0 2.5875 1.5751 2.3521 2.2574-2.7051 2.2574-2.7051l1.5751-0.2348s-0.5247 3.0571 0.9449 2.9399 2.6775-3.5282 2.6775-3.5282l1.5751-0.2348s0.052 2.6463 1.6797 2.5286 1.47-3.5292 1.47-3.5292l1.3121-0.4113s1.0499 2.8228 2.4153 2.1173 0.9449-4.2342 0.9449-4.2342-9.5021 4.4106-20.474 4.4106-19.424-1.8825-22.522-3.2346-8.6622-2.9993-8.6622-2.9993z" fill="#fff"/>
  <path d="m-76.837 235.31 5.3801 29.733-3.7662-29.332s-1.4352-1.4069-1.6139-0.4019z" fill="#f8d7bc"/>
  <path d="m-57.469 237.12h1.4347s-0.8968 28.728-0.8968 27.523-1.4347-27.322-0.538-27.523z" fill="#f8d7bc"/>
  <path d="m-2.7559,167.7575c0,0-3.027-7.3338-4.6775-5.2866s.6624,3.2242-1.7026,4.3543c-1.4003.6689-5.6727,2.3338-3.2715,3.5945s1.4713.39 1.715,1.8707c.2427.5843-3.907.3559-3.8713,1.6348 .0344,1.2473 2.8584.8735 3.0928,1.5028-.0552,1.2057-1.3999,1.0911-1.5609,1.9938-.2449,1.3742 1.6519,1.9077 2.4948,2.1905 .5053.1695.2392.2842.0998,1.3757-.1633,1.2809 1.5623,1.6497 4.4136-1.0268s4.7689-9.3685 3.2679-12.2036z" fill="#26231f"/>
  <path d="m-3.7451,171.6048c.0785-.5735.0468-2.2577-.1876-2.8885s-1.8284-5.3044-2.3439-5.777-1.4069.1577-1.1721,1.0505 1.1717,2.3635.3279,3.2039-5.0469,1.401-4.8761,2.3106c.188.9976 3.001-.0529 3.1881,1.7332 .2485,2.3615-4.5244,1.8005-4.5006,2.4683 .0468,1.3125 5.0633-.263 4.8761.7875s-4.0791,2.3636-3.2821,2.7309 3.3289-.7875 3.2821.0528-1.5945,3.2034-.6095,2.7832 4.6409-3.676 5.2976-8.4554z" fill="#f4b891"/>
  <path d="m-124.7613,167.2603c0,0 2.9238-6.4741 4.5747-4.4274s-.6624,3.2247 1.7026,4.3548c1.3999.6684 5.6723,2.3338 3.2715,3.594s-2.0437-.1903-2.2874,1.2903c-.2427.5848 4.4794.9368 4.4437,2.2157-.0345,1.2467-3.8806.3579-4.1149.9878 .0547,1.2052 2.4215,1.6056 2.5825,2.5088 .2454,1.3742-2.0684.6223-2.9113.9051-.5053.1695.9952,2.9696 1.1346,4.0611 .1637,1.2814-2.1289,1.4558-4.9798-1.2206s-4.9172-11.4349-3.4163-14.2695z" fill="#7c1863"/>
  <path d="m-123.8756,171.9657c-.079-.5735-.0468-2.2577.1871-2.888s1.8288-5.3044 2.3443-5.777 1.4065.1577 1.1721,1.05-1.1721,2.364-.3279,3.2039 5.0469,1.4015 4.8757,2.3106c-.1876.9981-3.0005-.0524-3.1881,1.7332-.248,2.3615 4.5249,1.8004 4.501,2.4683-.0472,1.313-5.0637-.2625-4.8761.7875s4.0787,2.3641 3.2821,2.7313-3.3289-.7875-3.2821.0528 1.5941,3.203.6095,2.7832-4.6414-3.6765-5.2976-8.4559z" fill="#f4b891"/>
 </g>
</svg>
